<?xml version="1.0" encoding="UTF-8" standalone="no"?>
<!-- Created with Inkscape (http://www.inkscape.org/) -->

<svg
   width="121.6475mm"
   height="110.00002mm"
   viewBox="0 0 121.6475 110.00002"
   version="1.1"
   id="svg1"
   xml:space="preserve"
   xmlns:xlink="http://www.w3.org/1999/xlink"
   xmlns="http://www.w3.org/2000/svg"
   xmlns:svg="http://www.w3.org/2000/svg"
   xmlns:i="http://ns.adobe.com/AdobeIllustrator/10.0/"><defs
     id="defs1"><filter
       style="color-interpolation-filters:sRGB"
       id="filter4-1"
       x="-0.33052689"
       y="-0.31874846"
       width="1.754217"
       height="1.7273402"><feFlood
         result="flood"
         in="SourceGraphic"
         flood-opacity="0.498039"
         flood-color="rgb(0,0,0)"
         id="feFlood3-0" /><feGaussianBlur
         result="blur"
         in="SourceGraphic"
         stdDeviation="3.000000"
         id="feGaussianBlur3-61" /><feOffset
         result="offset"
         in="blur"
         dx="6.000000"
         dy="6.000000"
         id="feOffset3-5" /><feComposite
         result="comp1"
         operator="in"
         in="flood"
         in2="offset"
         id="feComposite3-9" /><feComposite
         result="fbSourceGraphic"
         operator="over"
         in="SourceGraphic"
         in2="comp1"
         id="feComposite4-4" /><feColorMatrix
         result="fbSourceGraphicAlpha"
         in="fbSourceGraphic"
         values="0 0 0 -1 0 0 0 0 -1 0 0 0 0 -1 0 0 0 0 1 0"
         id="feColorMatrix4-9" /><feFlood
         id="feFlood4-0"
         result="flood"
         in="fbSourceGraphic"
         flood-opacity="0.498039"
         flood-color="rgb(0,0,0)" /><feGaussianBlur
         id="feGaussianBlur4-9"
         result="blur"
         in="fbSourceGraphic"
         stdDeviation="5.000000" /><feOffset
         id="feOffset4-1"
         result="offset"
         in="blur"
         dx="10.000000"
         dy="10.000000" /><feComposite
         id="feComposite5-7"
         result="comp1"
         operator="in"
         in="flood"
         in2="offset" /><feComposite
         id="feComposite6-7"
         result="fbSourceGraphic"
         operator="over"
         in="fbSourceGraphic"
         in2="comp1" /><feColorMatrix
         result="fbSourceGraphicAlpha"
         in="fbSourceGraphic"
         values="0 0 0 -1 0 0 0 0 -1 0 0 0 0 -1 0 0 0 0 1 0"
         id="feColorMatrix6-1" /><feFlood
         id="feFlood6-1"
         result="flood"
         in="fbSourceGraphic"
         flood-opacity="0.498039"
         flood-color="rgb(0,0,0)" /><feGaussianBlur
         id="feGaussianBlur6-5"
         result="blur"
         in="fbSourceGraphic"
         stdDeviation="20.000000" /><feOffset
         id="feOffset6-9"
         result="offset"
         in="blur"
         dx="10.000000"
         dy="10.000000" /><feComposite
         id="feComposite7-7"
         result="comp1"
         operator="in"
         in="flood"
         in2="offset" /><feComposite
         id="feComposite8-7"
         result="fbSourceGraphic"
         operator="over"
         in="fbSourceGraphic"
         in2="comp1" /><feColorMatrix
         result="fbSourceGraphicAlpha"
         in="fbSourceGraphic"
         values="0 0 0 -1 0 0 0 0 -1 0 0 0 0 -1 0 0 0 0 1 0"
         id="feColorMatrix8-6" /><feFlood
         id="feFlood8-7"
         result="flood"
         in="fbSourceGraphic"
         flood-opacity="0.498039"
         flood-color="rgb(255,255,255)" /><feGaussianBlur
         id="feGaussianBlur8-3"
         result="blur"
         in="fbSourceGraphic"
         stdDeviation="20.000000" /><feOffset
         id="feOffset8-6"
         result="offset"
         in="blur"
         dx="10.000000"
         dy="10.000000" /><feComposite
         id="feComposite9-56"
         result="comp1"
         operator="in"
         in="flood"
         in2="offset" /><feComposite
         id="feComposite10-3"
         result="fbSourceGraphic"
         operator="over"
         in="fbSourceGraphic"
         in2="comp1" /><feColorMatrix
         result="fbSourceGraphicAlpha"
         in="fbSourceGraphic"
         values="0 0 0 -1 0 0 0 0 -1 0 0 0 0 -1 0 0 0 0 1 0"
         id="feColorMatrix10-9" /><feFlood
         id="feFlood10-48"
         result="flood"
         in="fbSourceGraphic"
         flood-opacity="0.498039"
         flood-color="rgb(255,255,255)" /><feGaussianBlur
         id="feGaussianBlur10-1"
         result="blur"
         in="fbSourceGraphic"
         stdDeviation="20.000000" /><feOffset
         id="feOffset10-2"
         result="offset"
         in="blur"
         dx="10.000000"
         dy="10.000000" /><feComposite
         id="feComposite11-9"
         result="comp1"
         operator="in"
         in="flood"
         in2="offset" /><feComposite
         id="feComposite12-39"
         result="comp2"
         operator="over"
         in="fbSourceGraphic"
         in2="comp1" /></filter><filter
       style="color-interpolation-filters:sRGB"
       id="filter39"
       x="-0.34121395"
       y="-0.32569555"
       width="1.8246004"
       height="1.7870976"><feFlood
         result="flood"
         in="SourceGraphic"
         flood-opacity="1.000000"
         flood-color="rgb(0,0,0)"
         id="feFlood37" /><feGaussianBlur
         result="blur"
         in="SourceGraphic"
         stdDeviation="2.000000"
         id="feGaussianBlur37" /><feOffset
         result="offset"
         in="blur"
         dx="2.000000"
         dy="2.000000"
         id="feOffset37" /><feComposite
         result="comp1"
         operator="in"
         in="flood"
         in2="offset"
         id="feComposite38" /><feComposite
         result="comp2"
         operator="over"
         in="SourceGraphic"
         in2="comp1"
         id="feComposite39" /></filter><filter
       style="color-interpolation-filters:sRGB"
       id="filter41"
       x="-0.49199181"
       y="-0.4233652"
       width="2.1889802"
       height="2.0231326"><feFlood
         result="flood"
         in="SourceGraphic"
         flood-opacity="1.000000"
         flood-color="rgb(0,0,0)"
         id="feFlood39" /><feGaussianBlur
         result="blur"
         in="SourceGraphic"
         stdDeviation="2.000000"
         id="feGaussianBlur39" /><feOffset
         result="offset"
         in="blur"
         dx="2.000000"
         dy="2.000000"
         id="feOffset39" /><feComposite
         result="comp1"
         operator="in"
         in="flood"
         in2="offset"
         id="feComposite40" /><feComposite
         result="comp2"
         operator="over"
         in="SourceGraphic"
         in2="comp1"
         id="feComposite41" /></filter><filter
       style="color-interpolation-filters:sRGB"
       id="filter43"
       x="-0.40838343"
       y="-0.48952868"
       width="1.9869266"
       height="2.1830276"><feFlood
         result="flood"
         in="SourceGraphic"
         flood-opacity="1.000000"
         flood-color="rgb(0,0,0)"
         id="feFlood41" /><feGaussianBlur
         result="blur"
         in="SourceGraphic"
         stdDeviation="2.000000"
         id="feGaussianBlur41" /><feOffset
         result="offset"
         in="blur"
         dx="2.000000"
         dy="2.000000"
         id="feOffset41" /><feComposite
         result="comp1"
         operator="in"
         in="flood"
         in2="offset"
         id="feComposite42" /><feComposite
         result="comp2"
         operator="over"
         in="SourceGraphic"
         in2="comp1"
         id="feComposite43" /></filter><filter
       style="color-interpolation-filters:sRGB"
       id="filter45"
       x="-0.22782812"
       y="-0.16572999"
       width="1.5505846"
       height="1.4005141"><feFlood
         result="flood"
         in="SourceGraphic"
         flood-opacity="1.000000"
         flood-color="rgb(0,0,0)"
         id="feFlood43" /><feGaussianBlur
         result="blur"
         in="SourceGraphic"
         stdDeviation="2.000000"
         id="feGaussianBlur43" /><feOffset
         result="offset"
         in="blur"
         dx="2.000000"
         dy="2.000000"
         id="feOffset43" /><feComposite
         result="comp1"
         operator="in"
         in="flood"
         in2="offset"
         id="feComposite44" /><feComposite
         result="comp2"
         operator="over"
         in="SourceGraphic"
         in2="comp1"
         id="feComposite45" /></filter><filter
       style="color-interpolation-filters:sRGB"
       id="filter47"
       x="-0.29722135"
       y="-0.3270744"
       width="1.7182849"
       height="1.7904298"><feFlood
         result="flood"
         in="SourceGraphic"
         flood-opacity="1.000000"
         flood-color="rgb(0,0,0)"
         id="feFlood45" /><feGaussianBlur
         result="blur"
         in="SourceGraphic"
         stdDeviation="2.000000"
         id="feGaussianBlur45" /><feOffset
         result="offset"
         in="blur"
         dx="2.000000"
         dy="2.000000"
         id="feOffset45" /><feComposite
         result="comp1"
         operator="in"
         in="flood"
         in2="offset"
         id="feComposite46" /><feComposite
         result="comp2"
         operator="over"
         in="SourceGraphic"
         in2="comp1"
         id="feComposite47" /></filter><linearGradient
       id="franceFlag"
       x1="0"
       y1="0"
       x2="1"
       y2="0"><stop
         offset="0%"
         stop-color="#0055A4"
         id="stop1-6" /><stop
         offset="33.33%"
         stop-color="#0055A4"
         id="stop2-1" /><stop
         offset="33.33%"
         stop-color="#FFFFFF"
         id="stop3-0" /><stop
         offset="66.66%"
         stop-color="#FFFFFF"
         id="stop4-6" /><stop
         offset="66.66%"
         stop-color="#EF4135"
         id="stop5-1" /><stop
         offset="100%"
         stop-color="#EF4135"
         id="stop6-5" /></linearGradient><filter
       style="color-interpolation-filters:sRGB"
       id="filter2-1"
       x="-0.34177372"
       y="-0.24000023"
       width="1.8259532"
       height="1.5800006"><feFlood
         result="flood"
         in="SourceGraphic"
         flood-opacity="1.000000"
         flood-color="rgb(0,0,0)"
         id="feFlood1-89" /><feGaussianBlur
         result="blur"
         in="SourceGraphic"
         stdDeviation="2.000000"
         id="feGaussianBlur1-6" /><feOffset
         result="offset"
         in="blur"
         dx="2.000000"
         dy="2.000000"
         id="feOffset1-4" /><feComposite
         result="comp1"
         operator="in"
         in="flood"
         in2="offset"
         id="feComposite1-3" /><feComposite
         result="comp2"
         operator="over"
         in="SourceGraphic"
         in2="comp1"
         id="feComposite2-3" /></filter><linearGradient
       xlink:href="#franceFlag"
       id="linearGradient18"
       gradientUnits="userSpaceOnUse"
       gradientTransform="scale(0.83858821,1.1924804)"
       x1="194.72958"
       y1="69.462578"
       x2="212.19273"
       y2="69.462578" /></defs><g
     id="layer1"
     transform="translate(-60.513218,300.21817)"><path
       style="fill:#d9e3ec;fill-opacity:1;stroke:none;stroke-width:0.326001;stroke-miterlimit:3.9;stroke-opacity:1"
       id="path1-3-85"
       d="m 123.60889,122.93158 c -5.04595,2.81084 -52.796156,2.07727 -57.753385,-0.88724 -4.957228,-2.9645 -28.197046,-44.68418 -28.108322,-50.459519 0.08872,-5.775339 24.599114,-46.76145 29.645067,-49.572282 5.045952,-2.810833 52.79616,-2.077267 57.75339,0.88724 4.95723,2.964506 28.19705,44.684183 28.10832,50.459522 -0.0887,5.775339 -24.59911,46.761449 -29.64507,49.572279 z"
       transform="matrix(1.0531586,0,0,1.0531586,20.759713,-321.54273)" /><path
       style="fill:#ffffff;fill-opacity:1;stroke:none;stroke-width:0.326001;stroke-miterlimit:3.9;stroke-opacity:1"
       id="path1-1-0"
       d="m 123.60889,122.93158 c -5.04595,2.81084 -52.796156,2.07727 -57.753385,-0.88724 -4.957228,-2.9645 -28.197046,-44.68418 -28.108322,-50.459519 0.08872,-5.775339 24.599114,-46.76145 29.645067,-49.572282 5.045952,-2.810833 52.79616,-2.077267 57.75339,0.88724 4.95723,2.964506 28.19705,44.684183 28.10832,50.459522 -0.0887,5.775339 -24.59911,46.761449 -29.64507,49.572279 z"
       transform="matrix(0.86167518,0,0,0.86167518,38.638003,-308.01333)" /><path
       style="fill:none;fill-opacity:1;stroke:#001558;stroke-width:5.2725;stroke-miterlimit:3.9;stroke-dasharray:none;stroke-opacity:1"
       id="path1-38"
       d="m 123.60889,122.93158 c -5.04595,2.81084 -52.796156,2.07727 -57.753385,-0.88724 -4.957228,-2.9645 -28.197046,-44.68418 -28.108322,-50.459519 0.08872,-5.775339 24.599114,-46.76145 29.645067,-49.572282 5.045952,-2.810833 52.79616,-2.077267 57.75339,0.88724 4.95723,2.964506 28.19705,44.684183 28.10832,50.459522 -0.0887,5.775339 -24.59911,46.761449 -29.64507,49.572279 z"
       transform="matrix(0.94831692,0,0,0.94831692,30.245873,-314.12287)" /><g
       id="g5-5"
       transform="matrix(0.13671809,0,0,0.13671809,87.706163,-249.34827)"
       style="mix-blend-mode:luminosity;fill:#ffffff;fill-opacity:1;stroke:none;stroke-opacity:1;filter:url(#filter4-1)">
	<path
   class="st0"
   d="m 397.85069,33.537611 c 0.395,0.034 0.72,0.24 1.096,0.317 0.498,-0.025 0.985,-0.12 1.492,-0.077 z"
   id="path1-2-6"
   style="fill:#ffffff;fill-opacity:1;stroke:none;stroke-opacity:1" />
	<path
   class="st0"
   d="m 431.53969,-33.607389 c -0.086,0.162 -0.232,0.274 -0.318,0.428 -0.094,0.223 -0.137,0.471 -0.248,0.685 z"
   id="path2-6-1"
   style="fill:#ffffff;fill-opacity:1;stroke:none;stroke-opacity:1" />
	<path
   class="st0"
   d="m 421.46369,87.941611 c 0,0.284 -0.112,0.541 -0.137,0.814 0.026,0.291 0.137,0.557 0.137,0.848 z"
   id="path3-1"
   style="fill:#ffffff;fill-opacity:1;stroke:none;stroke-opacity:1" />
	<path
   class="st0"
   d="m 443.51669,175.05761 1.114,-7.411 c 0.496,-3.256 -0.532,-6.555 -2.794,-8.944 -2.262,-2.391 -9.99,-3.761 -11.772,-4.652 l -6.305,-3.161 c -2.297,-1.148 -4.113,-3.094 -5.09,-5.458 l -2.416,-5.792 c -1.456,-3.504 -0.96,-7.522 1.32,-10.555 l 0.514,-0.685 c 3.581,-7.437 -14.48,-16.261 -10.538,-24.718 1.302,-2.802 3.856,-4.823999 6.854,-5.619999 l -0.909,0.24 c 4.421,-1.183 7.48,-5.046 7.831,-9.544 -0.162,-1.97 -0.771,-3.889 -1.936,-5.492 l -5.174,-7.034 c -1.731,-2.356 -2.416,-5.321 -1.902,-8.2 0.514,-2.878 1.37,-9.322 -0.668,-14.068 l -3.187,-7.437 c -0.565,-1.327 -0.856,-2.758 -0.856,-4.214 v 1.902 c 0,-5.141 -3.71,-9.365 -8.654,-10.359 -3.538,0.171 -6.819,1.988 -8.67,5.081 l -3.068,5.115 c -2.758,4.601 -12.371,0.232 -10.692,-5.029 l 5.26,-16.518 c 0.412,-1.276 1.045,-2.468 1.902,-3.513 l 17.992,-22.0710004 c 2.039,-2.526 2.844,-5.843 2.159,-9.0299996 -0.686,-3.179 5.004,-3.504 4.232,-6.528 -0.754,-3.015 6.1,-10.555 10.35,-9.579 l 1.131,0.257 c 4.635,1.071 9.338,-1.106 11.677,-5.218 0.232,-0.548 0.472,-1.096 0.609,-1.67 l 14.719,-63.075 c 0.669,-2.913001 0.103,-5.980001 -1.576,-8.448001 -1.679,-2.484 -4.318,-4.146 -7.283,-4.584 l -36.481,-5.474 c -1.593,-0.24 -3.136,-0.84 -4.472,-1.764 l -16.022,-11.022 c -1.388,-0.951 -2.964,-1.559 -4.626,-1.782 l -22.688,-3.101 c -1.662,-0.223 -3.238,-0.832 -4.61,-1.774 l -18.248,-12.483 c -2.313,-1.585 -3.908,-4.001 -4.456,-6.752 l 0.052,0.291 c -0.994,-5.004 -8.894,-8.079 -10.573,-7.077 l 0.189,-0.12 c -2.605,1.576 -5.757,1.954 -8.671,1.062 -2.913,-0.899 -5.295,-2.999 -6.562,-5.757 l -0.548,-1.149 c -1.285,-2.793 -3.701,-4.9 -6.648,-5.774 l -5.38,-1.62 c -1.697,-0.505 -3.239,-1.431 -4.507,-2.681 l -8.191,-8.208 c -0.822,-0.814 -1.491,-1.756 -2.005,-2.785 l -2.193,-4.36 c -2.005,-4.018 -5.861,-6.409 -5.861,-6.409 -5.122,0.574 -9.921,-2.57 -11.429,-7.497 l 0.532,1.722 c -1.662,-5.406 -7.248,-8.585 -12.749,-7.258 l -20.528,4.944 c -3.838,0.926 -6.854,3.89 -7.848,7.711 l -10.83,41.331 c -0.892,3.384 -3.376,6.117 -6.648,7.334 l -23.596,8.739 c -3.256,1.208 -5.723,3.924 -6.631,7.283 l -1.885,7.111 c -1.062,3.941 -4.25,6.94 -8.259,7.745 l -10.007,1.997 c -1.542,0.317 -3.153,0.274 -4.696,-0.111 l -16.998,-4.25 c -3.65,-0.908 -6.546,-3.658 -7.642,-7.248 l -1.199,-3.872 c -1.251,-4.087 -4.815,-7.034 -9.065,-7.506 l -1.422,-0.154 c -3.358,-0.377 -6.699996,0.856 -9.012996,3.324 -2.297,2.467 -3.308,5.895 -2.708,9.219 l 5.603,31.255001 c 0.429,2.433 -4.387,2.715 -5.603,6.785 -1.234,4.061 -4.73,7.017 -8.945,7.54 l -15.747,0.548 c -2.776,0.154 -5.483,-0.789 -7.574,-2.605 l -12.286,-10.641 c -2.159,-1.859 -4.952,-2.794 -7.779,-2.588 l -8.671,0.617 c -2.913,0.206 -5.602,1.593 -7.47,3.821 l 0.411,-0.479 c -2.364,2.827 -6.014,4.249 -9.664,3.761 l -11.1549996,-1.482 c -1.234,-0.171 -2.502,-0.12 -3.73600002,0.154 l -8.51599998,1.902 c -3.0670004,0.676 -4.7460004,3.444 -7.1450004,5.449 -2.536,2.107 -2.416,4.13 -2.416,4.13 1.422,3.564 5.209,6.168 5.209,6.168 3.4100004,0.488 8.0020004,3.787 11.7900004,5.672 9.664,5.252 -3.702,8.276 -4.198,11.763 -0.498,3.487 3.341,6.666 5.92799998,9.056 l 3.83800002,3.547 c 0.771,0.694 1.628,1.285 2.554,1.731 l 65.4389996,32.18 c 4.421,2.1589996 6.786,7.0599996 5.758,11.8569996 l -0.942,4.37 c -0.686,3.222 0.137,6.5800004 2.244,9.1080004 l 20.272,24.323 c 1.061996,1.26 2.381996,2.262 3.888996,2.93 l 1.645,0.737 c 4.387,1.945 6.94,6.564 6.255,11.31 l -2.005,14.102 c -0.394,2.776 0.309,5.604 1.988,7.874 l 13.417,18.206 c 1.062,1.448 1.748,3.136 1.987,4.918 l 1.748,12.850999 c 0.429,3.067 1.663,6.7 6.7,10.059 2.57,1.713 0.428,5.038 0.428,5.038 -5.552,0 -13.417,-7.163 -13.914,-12.68 l -1.251,-13.759 c -0.24,-2.707999 -4.232,-4.806999 -7.916,-3.512999 -3.667,1.302 -6.357,4.497999 -6.991,8.343999 l -2.416,14.497 c -0.462,2.682 2.177,14.256 -0.942,17.897 l -0.531,0.626 c -1.148,1.337 -1.953996,2.93 -2.330996,4.644 l -9.047,40.713 c -0.291,1.354 -0.857,2.63 -1.645,3.77 l -4.712,6.786 c -3.102,4.489 -2.348,10.58 1.764,14.17 l 11.155,9.768 c 1.183,1.036 2.588,1.799 4.112996,2.236 l 61.789,17.658 c 3.958,1.131 8.208,-0.111 10.95,-3.187 l 0.96,-1.08 c 2.827,-3.178 7.265,-4.387 11.309,-3.076 l 33.191,10.736 c 1.954,0.633 3.685,1.816 4.987,3.41 l 6.134,7.488 c 2.039,2.493 5.072,3.941 8.293,3.941 h 23.596 c 5.792,0 10.538,-4.601 10.71,-10.384 l 0.788,-24.932 c 0.103,-3.179 1.594,-6.152 4.113,-8.105 l 21.333,-16.707 c 2.348,-1.834 5.363,-2.613 8.328,-2.134 l 49.179,8.011 c 0.257,0.034 0.496,0.086 0.737,0.146 l 37.544,8.833 c 3.136,0.737 6.426,0.034 8.962,-1.919 l 35.384,-27.057 c 2.206,-1.677 3.662,-4.162 4.074,-6.921 z"
   id="path4-5"
   style="fill:#ffffff;fill-opacity:1;stroke:none;stroke-opacity:1" />
	<path
   class="st0"
   d="m 475.49069,249.37361 -4.746,-16.612 c -0.085,-0.318 -0.137,-0.651 -0.137,-0.985 v -12.784 c 0,-1.062 -0.48,-2.082 -1.302,-2.758 -0.814,-0.66 -1.851,-0.917 -2.88,-0.737 -1.311,0.3 -2.339,1.285 -2.672,2.587 l -1.645,6.58 c -0.206,0.848 -0.72,1.594 -1.44,2.082 l -17.821,12.243 c -0.788,0.548 -1.32,1.388 -1.491,2.331 l -3.324,18.814 c -0.12,0.737 -0.017,1.49 0.309,2.168 l 14.153,29.498 c 0.309,0.634 0.789,1.165 1.389,1.525 l 8.584,5.14 c 0.822,0.498 1.799,0.634 2.724,0.395 0.926,-0.232 1.714,-0.823 2.194,-1.654 l 6.546,-11.224 c 0.291,-0.505 0.462,-1.088 0.48,-1.67 l 1.217,-33.825 c 0.017,-0.377 -0.034,-0.754 -0.138,-1.114 z"
   id="path5-9"
   style="fill:#ffffff;fill-opacity:1;stroke:none;stroke-opacity:1" />
</g><path
       d="m 124.51228,-271.9118 c -3.62438,1.64361 -5.81164,4.19753 -7.16025,7.4679 -0.4973,1.20531 -0.84288,2.5497 -0.47622,3.80138 0.36665,1.24746 1.66468,2.29262 2.92478,1.98076 0.83445,-0.20651 1.43711,-0.91452 2.04819,-1.52139 a 11.79186,11.79186 0 0 1 3.22823,-2.25892 c 1.49189,-0.70801 3.12707,-1.09152 4.59368,-1.85854 1.46239,-0.76702 2.80678,-2.05662 3.00065,-3.69602 0.18964,-1.60568 -0.82603,-3.20715 -2.25049,-3.97838 -1.42446,-0.77124 -3.81823,-0.88503 -5.90857,0.0632 z"
       fill="url(#IconifyId17ecdb2904d178eab10094)"
       id="path6-9-5"
       style="stroke-width:0.421439" /><path
       d="m 115.9655,-268.41807 c 0.19386,-0.004 0.37086,-0.0969 0.47622,-0.25708 0.56895,-0.83445 1.89226,-3.0765 5.49135,-5.06148 2.09877,-1.15896 3.86038,-1.61832 4.48833,-1.74897 1.77847,-0.37087 1.16317,-1.29382 0.008,-1.13789 -1.31068,0.17701 -7.07175,1.44554 -10.96584,7.26561 -0.26973,0.4088 0.0126,0.95245 0.50151,0.93981 z"
       fill="#ffffff"
       opacity="0.59"
       id="path7-7-9"
       style="stroke-width:0.421439" /><path
       d="m 143.28317,-253.04819 c -0.54366,0.0674 -1.04517,1.01145 -1.14632,1.17581 -0.5268,0.85974 -1.55932,2.99222 -5.14998,4.99405 -1.67311,0.93138 -3.3968,1.61411 -4.25653,1.85012 -1.40339,0.38772 -1.09996,1.3486 0.0421,1.13788 1.30225,-0.24022 7.0001,-1.77004 10.62026,-7.7629 0.25286,-0.42144 0.6153,-1.48347 -0.10957,-1.39496 z"
       fill="#ffffff"
       opacity="0.59"
       id="path8-6"
       style="stroke-width:0.421439" /><path
       d="m 130.2017,-246.92047 c -1.90911,-0.059 -2.27998,-0.94403 -1.88804,-1.65626 0.31186,-0.56473 1.04095,-0.67851 1.68575,-0.72909 3.43473,-0.26972 6.74302,-2.35584 9.29694,-4.58104 -0.45094,2.3137 -1.34439,3.51902 -2.74778,4.64426 -1.37389,1.09574 -3.42208,2.41484 -6.34687,2.32213 z"
       fill="url(#IconifyId17ecdb2904d178eab10095)"
       id="path9-21"
       style="stroke-width:0.421439" /><path
       d="m 105.74559,-272.79294 -0.91328,-0.21704 -0.84094,-0.74148 0.0362,-1.6638 0.65105,-0.10841 0.0361,-1.03084 -0.64202,-0.49732 -0.1176,-0.81383 v -0.1446 l -0.56966,-0.59681 -0.0362,-0.10845 -1.25688,0.0723 -0.15375,0.60583 -0.91328,0.52445 -1.62765,0.84998 H 97.6073 l -0.83189,-1.27497 0.0361,-1.83559 0.22601,-0.75053 0.0361,-0.1356 0.1176,-1.41963 0.5335,-2.6223 0.53352,-1.38348 c 0,0 0.37609,-0.35631 0.45211,-0.53352 0.0759,-0.17722 0.49732,-0.74147 0.49732,-0.74147 l 0.8319,-0.10845 0.23509,0.43402 0.0362,-0.0452 h 0.8319 l 1.25688,1.06702 0.79575,1.09411 -0.0362,2.54996 -0.46115,1.3473 0.15375,1.10318 0.86807,0.17171 h 0.009 l 0.26223,-0.31649 0.72338,-0.17192 0.56966,-0.21705 0.0543,0.0272 0.0633,-0.20808 1.10317,-0.0633 1.8989,0.35266 1.06701,0.77764 1.86273,0.0723 1.59145,0.5335 -0.98564,0.56063 -0.11759,0.5335 -1.25689,0.81381 -2.38719,0.0361 -0.72338,1.23879 v 1.38348 l -0.49732,1.06701 z"
       class="land departement dom departement971"
       id="path15"
       style="fill:#ffffff;fill-opacity:1;stroke:none;stroke-width:0.304491;stroke-miterlimit:3.97447;stroke-dasharray:none;stroke-opacity:1;filter:url(#filter47)" /><path
       d="m 80.230263,-251.24554 c 0,0 -1.87521,0.0454 -2.10432,0.1311 -0.22912,0.0853 -1.14852,0.72457 -1.14852,0.72457 l -0.13874,0.0384 -0.54728,0.81707 0.185,1.06371 1.6033,1.58017 -0.27749,0.43167 v 0.85559 l 0.68602,0.94041 2.20454,1.96557 h 1.96558 0.185 l 0.54728,-0.0464 h 0.0925 l -0.0925,0.38541 v 0.30062 l 0.64748,0.16952 0.26979,0.16953 c 0,0 -0.0903,0.72809 0.13876,0.77081 l -0.68604,0.0384 -0.96352,-0.2929 -0.63978,-0.1311 -0.82477,0.33916 -0.46249,0.55498 -0.22354,0.63979 0.1773,0.64748 0.46248,0.63978 0.59353,0.33915 c 0,0 0.59566,-0.16893 0.82477,-0.25438 0.22912,-0.0855 0.41625,-0.47018 0.41624,-0.47018 0,0 0.6813,-0.042 1.00207,-0.0847 0.32075,-0.0427 0.64748,0.38541 0.64748,0.38543 l 1.51079,0.20811 0.68603,0.38541 0.40854,-0.0384 v -0.43167 l 0.37,-0.20811 0.36999,0.20811 -0.18501,0.51645 -0.41624,0.38541 0.185,0.76312 0.54729,0.3006 0.64748,-0.0384 0.63978,-0.51645 0.185,-0.67831 0.63978,-0.68603 -0.41625,-0.85562 -0.26978,-0.77081 -0.32374,-1.02518 -0.32374,-0.72456 c 0,0 -0.77853,-0.76952 -0.77853,-0.94039 0,-0.1709 -0.73227,-0.55499 -0.73227,-0.55499 l -0.0926,-0.68603 c 0,0 0.1871,-0.20743 0.41624,-0.2929 0.2291,-0.0854 -0.13875,-0.47021 -0.13875,-0.47021 l -0.45477,0.0847 -0.69374,0.16951 -0.17729,-0.21582 -0.2775,-0.3006 0.0462,-0.38541 0.50105,0.0924 0.41624,-0.47021 -0.59354,-0.47018 -0.46248,-0.1311 -0.13876,-0.25436 v 0 -0.30062 l 0.50875,-0.21584 0.36228,0.30062 0.63977,0.25439 0.32375,-0.38543 v -0.42393 l 0.27748,-0.33917 -0.23124,-0.26207 -0.50103,-0.20813 -0.32373,0.29291 -1.27956,0.13111 -0.41625,0.3006 -0.54728,-0.16953 -0.63977,-1.02518 -1.47226,-1.45684 -0.82477,-0.33918 z"
       class="land departement dom departement972"
       id="path16"
       style="fill:#ffffff;fill-opacity:1;stroke:none;stroke-width:0.259563;stroke-miterlimit:3.97447;stroke-dasharray:none;stroke-opacity:1;filter:url(#filter39)" /><path
       d="m 110.89838,-213.70794 c -0.0291,0.001 -0.051,0.0115 -0.0611,0.0204 l -0.56312,0.71238 -0.48849,0.56312 -0.56312,0.56312 0.0814,1.50618 -0.0407,1.39085 0.48849,0.67846 0.48171,0.86163 0.27817,0.5292 -0.27817,0.33923 -0.32565,0.90236 0.0407,1.24159 -0.4003,0.71237 -0.64453,0.52921 0.19675,0.22388 0.48849,0.29853 0.441,0.2646 0.64454,-0.18997 0.68524,-0.41386 1.4112,-0.0339 0.5292,0.37316 0.56312,0.0407 0.56312,0.11539 0.80738,-0.64453 0.92948,-1.61475 0.68525,-1.39083 0.68524,-1.01769 0.72596,-0.93627 0.40029,-0.71917 -0.31888,-0.63775 -0.24425,-0.90236 -0.52241,-0.18997 -0.59704,-0.40707 -0.49529,-0.45457 -0.64453,-0.41386 -0.441,-0.14926 -1.28908,-0.90235 -0.84807,-0.30531 -0.80736,-0.1085 c 0,0 -0.36147,-0.14868 -0.56312,-0.2239 -0.17647,-0.0658 -0.78709,-0.22368 -0.99056,-0.21031 z"
       class="land departement dom departement973"
       id="path17"
       style="fill:#ffffff;fill-opacity:1;stroke:none;stroke-width:0.190102;stroke-miterlimit:3.97447;stroke-dasharray:none;stroke-opacity:1;filter:url(#filter41)" /><path
       d="m 156.26855,-246.15319 -0.8971,0.0172 -0.32572,0.16 -0.37141,0.2857 -0.0685,0.0628 h -0.25714 l -0.54283,0.2057 -0.23427,0.20571 -0.74854,0.1085 -0.0685,0.39428 -0.2057,0.82281 c 0,0 -0.2865,0.19118 -0.37141,0.22286 -0.0849,0.0317 -0.55999,0.2857 -0.55999,0.2857 l -0.0857,0.87425 0.2057,0.51999 0.55998,0.66283 0.26856,0.30284 0.21713,-0.0457 -0.13148,0.0628 0.0172,1.18853 0.55998,0.69711 0.57712,0.53713 1.01711,0.59997 0.0685,-0.04 -0.08,0.0572 1.20566,0.72569 0.93139,0.33713 0.99996,0.17141 0.79997,0.28571 0.50855,0.0972 c 0,0 0.78379,-0.15999 0.88569,-0.15999 0.10195,0 0.91424,-0.15999 0.91424,-0.15999 l 0.83425,-0.26857 0.55999,-0.50855 -0.0515,-0.90282 0.10283,-0.5657 0.22285,-0.31998 0.37141,-0.4914 0.18857,-0.61712 -0.0515,-0.59998 -0.39428,-0.22285 -0.50855,-0.23427 -0.23429,-0.0172 -0.37713,-0.53712 c -0.0849,-0.0633 -0.54314,-0.57223 -0.57711,-0.6514 -0.034,-0.0791 -0.33713,-0.75998 -0.33713,-0.75998 l -0.10283,-1.06282 -0.57712,-0.55425 -0.67996,-0.37714 c 0,1e-5 -0.5438,-0.31556 -0.64569,-0.33142 -0.10196,-0.0159 -1.0006,-0.2057 -1.06854,-0.2057 -0.0679,0 -0.73155,0.047 -0.74854,0.0628 l -0.0857,-0.0343 z"
       class="land departement dom departement974"
       id="path98"
       style="fill:#ffffff;fill-opacity:1;stroke:none;stroke-width:0.192414;stroke-miterlimit:3.97447;stroke-dasharray:none;stroke-opacity:1;filter:url(#filter43)" /><g
       id="mayotte"
       class="land mayotte"
       transform="matrix(0.50907935,0,0,0.50907935,22.849063,-539.16158)"
       style="fill:#ffffff;fill-opacity:1;stroke:none;stroke-width:0.5;stroke-miterlimit:3.97447;stroke-dasharray:none;stroke-opacity:1;filter:url(#filter45)"><path
         id="path5886"
         d="m 246.2712,526.59904 c -0.25486,-2.7e-4 -0.45269,0.0217 -0.57582,0.27339 -0.14964,0.30572 -0.43014,-0.0166 -0.60354,-0.0709 -0.33418,-0.10448 -0.58186,0.0605 -0.71768,0.37075 -0.055,0.12582 -0.0235,0.23695 -0.0596,0.36257 -0.0492,0.17111 -0.22601,0.13354 -0.23393,-0.027 -0.028,-0.56979 0.0359,-1.16836 -0.62454,-1.33263 -0.68903,-0.17145 -0.96966,0.15239 -0.83297,0.80491 0.0234,0.11174 0.0451,0.2285 0.0307,0.34318 -0.0923,-10e-4 -0.19031,0.0181 -0.24883,0.0965 -0.099,0.13301 -0.0648,0.32231 -0.1752,0.45108 -0.11247,0.13112 -0.44511,0.29889 -0.6179,0.30989 -0.31674,0.0205 -0.30009,-0.50154 -0.43229,-0.69131 -0.12857,-0.18434 -0.46289,-0.30204 -0.66226,-0.14985 -0.11716,0.0894 -0.072,0.34727 -0.28505,0.26681 -0.10784,-0.22386 -0.0826,-0.55971 -0.15945,-0.80955 -0.0784,-0.25526 -0.44986,-0.36021 -0.69661,-0.36021 -0.26929,0 -0.45967,0.7101 -0.78109,0.88746 -0.0829,0.055 -0.17072,-0.49926 -0.0446,-0.61435 0.24768,-0.22574 0.11629,-0.37625 0.13804,-0.73217 0.0219,-0.36036 0.37705,-1.41443 -0.40001,-1.20117 -0.21467,0.059 -0.25232,0.29056 -0.46114,0.35552 -0.23111,0.0719 -0.54798,0.16057 -0.78359,0.0629 -0.19762,-0.0819 -0.12561,-0.32693 -0.43577,-0.28352 -0.34036,0.0475 -0.34472,-0.12233 -0.0713,-0.28062 0.2205,-0.12764 0.43846,-0.24299 0.68782,-0.30392 0.30083,-0.0736 0.37894,-0.31217 0.59313,-0.50597 0.33164,-0.29996 0.44933,-1.0114 0.29217,-1.42698 -0.0682,-0.18044 -0.11615,-0.43188 -0.34511,-0.46013 -0.16226,-0.0201 -0.73943,0.58729 -0.73943,0.0635 0,-0.34022 -0.0741,-0.30211 -0.31914,-0.48141 -0.22601,-0.16568 -0.29654,-0.46993 -0.37774,-0.72272 -0.0691,-0.21486 -0.0413,-0.56502 -0.245,-0.70157 -0.16105,-0.10804 -0.49556,-0.1114 -0.43745,-0.38445 0.34445,-0.0438 0.72903,-0.10542 1.07582,-0.0986 0.13857,0.003 0.25828,0.0823 0.39679,0.0917 0.14743,0.01 0.2615,-0.0533 0.40008,-0.0816 0.13736,-0.0282 0.46698,0.20118 0.52536,0.31573 0.0713,0.14018 0.0175,0.30855 0.0307,0.45645 0.0194,0.21815 0.0719,0.42262 0.0827,0.64346 0.0142,0.28909 0.23675,0.42256 0.3876,0.64219 0.18105,0.26372 0.46248,0.22514 0.72238,0.34955 0.26869,0.1285 0.50281,0.23922 0.79096,0.32237 0.32505,0.0939 0.55267,0.36941 0.90242,0.3929 0.194,0.0131 0.52966,-0.0542 0.67453,-0.20051 0.13582,-0.1371 0.45994,-0.45007 0.45638,-0.6026 -0.003,-0.13696 0.0113,-0.27983 -0.004,-0.41605 0.0464,-0.10307 0.15112,-0.006 0.12427,-0.17783 -0.0504,-0.3221 -0.38041,-0.50563 -0.47637,-0.80035 -0.0319,-0.0976 0.0299,-0.20461 -0.0913,-0.26681 -0.10522,-0.0538 -0.21521,-0.0398 -0.24111,-0.19091 -0.057,-0.33076 0.008,-0.34828 -0.26177,-0.54422 -0.20943,-0.15192 -0.14468,-0.44014 -0.29245,-0.63065 -0.0755,-0.0972 -0.19003,-0.0749 -0.28458,-0.13817 -0.16401,-0.10985 -0.28808,-0.26519 -0.44229,-0.38686 -0.43336,-0.34162 -1.04904,-0.58018 -1.15883,-1.19452 -0.0413,-0.23091 -0.0538,-0.46691 -0.36162,-0.46792 -0.29298,-0.001 -0.63729,-0.19856 -0.80673,-0.43604 -0.0933,-0.13086 -0.3921,-0.24836 -0.30983,-0.46316 0.0393,-0.10314 0.20367,-0.0854 0.28178,-0.13529 0.11683,-0.0744 0.11548,-0.15715 0.16004,-0.27391 0.17675,-0.46349 1.30015,-0.26447 1.34001,-0.52308 0.0368,-0.23849 -0.17306,-0.25581 -0.35008,-0.28808 -0.24467,-0.0447 -0.42739,-0.20434 -0.69554,-0.23104 -0.29432,-0.0294 -0.1422,-0.35982 -0.0376,-0.51342 0.19413,-0.28499 0.19501,-0.64555 0.19501,-0.97604 0,-0.49798 -0.73118,-0.80706 -0.41719,-1.41443 0.14132,-0.27338 0.46845,-0.0511 0.62125,-0.25345 0.31318,-0.41511 -0.47335,-0.24701 -0.60978,-0.25962 -0.25667,-0.0237 -0.34821,-0.36519 -0.32418,-0.57556 0.0282,-0.24587 0.24413,-0.34264 0.36069,-0.54422 0.078,-0.13434 0.26694,-0.5714 0.20943,-0.71889 -0.10978,-0.28164 -0.22769,-0.42625 -0.49396,-0.2148 -0.51865,0.41081 -0.84289,-0.51979 -1.31988,-0.26487 -0.24533,0.13126 -0.49429,0.0803 -0.6244,-0.19305 -0.0676,-0.1422 -0.17427,-0.11703 -0.28352,-0.20212 -0.0992,-0.0775 -0.1938,-0.21628 -0.28298,-0.30889 -0.16273,-0.16896 -0.3327,-0.32787 -0.5773,-0.35048 -0.20386,-0.0188 -0.50456,0.27674 -0.6844,0.18548 -0.10696,-0.0545 -0.13421,-0.2085 -0.2148,-0.28842 -0.1077,-0.10676 -0.24453,-0.11079 -0.37397,-0.16857 -0.33774,-0.15098 0.15346,-0.5428 0.24499,-0.65004 0.27862,-0.3266 0.69132,-0.66386 0.83847,-1.0369 0.26151,-0.66332 -0.93731,-0.35786 -1.18808,-0.50858 -0.22118,-0.13294 0.5781,-0.75043 0.62501,-0.95369 0.0548,-0.23788 -0.0751,-0.50201 0.0421,-0.72875 0.14199,-0.27473 0.25942,-0.13301 0.49167,-0.0815 0.23957,0.0533 0.58576,0.0738 0.71185,-0.17353 0.0686,-0.13468 0.2609,-0.47886 0.38437,-0.56562 0.14964,-0.10496 0.37545,-0.38505 0.18541,-0.57516 -0.29405,-0.29425 -0.14588,-0.24056 0.22822,-0.29089 0.16736,-0.0225 0.54771,0.0156 0.57408,-0.21367 0.0221,-0.19138 2.1e-4,-0.65265 0.16508,-0.78223 0.18004,-0.14146 0.31277,-0.30721 0.49261,-0.44417 0.0824,-0.0629 0.20608,-0.11649 0.26171,-0.2095 0.0833,-0.13931 -0.0685,-0.3533 0.17434,-0.38041 0.25842,-0.0291 0.27399,0.0833 0.47114,-0.16884 0.0735,-0.0939 0.52288,-0.55878 0.50597,-0.18903 -0.008,0.18226 -0.45907,0.33049 -0.2144,0.51355 0.26607,0.19923 -0.0536,0.23278 -0.20212,0.26983 -0.4243,0.10602 -1.41537,0.47932 -0.65823,0.89517 0.23588,0.12958 0.48376,0.18716 0.73929,0.2399 0.41847,0.087 -0.30969,0.34868 0.16595,0.44014 0.15099,0.0289 0.19615,-0.008 0.27882,0.11723 0.0406,0.0613 0.0992,0.20111 0.16246,0.24003 0.24097,0.14824 0.14676,0.35485 0.26775,0.57945 0.10837,0.20118 0.41819,0.35243 0.61058,0.4649 0.14763,0.0863 0.30587,0.16743 0.48201,0.16743 0.14931,1.3e-4 0.36492,-0.0517 0.45175,0.11622 0.0874,0.1687 -0.76499,0.44584 -0.49322,0.87256 0.14146,0.22212 0.4231,0.33512 0.52925,0.59441 0.0884,0.21635 -0.0584,0.67024 0.26285,0.62891 0.12019,-0.0154 0.27292,-0.0844 0.3874,-0.004 0.0924,0.0653 0.10569,0.12529 0.23815,0.13066 0.31077,0.0127 0.30929,-0.19736 0.57455,0.0843 0.59226,0.62877 0.90853,-0.33156 1.3586,-0.5055 0.29076,-0.11233 0.32016,-0.0572 0.50583,0.15126 0.10945,0.12293 0.27849,0.44309 0.49262,0.34974 0.28425,-0.124 0.49751,0.0428 0.75143,-0.007 0.2958,-0.0579 0.408,-0.0197 0.65803,0.14051 0.1844,0.11791 0.51288,-0.0385 0.73057,0.0638 0.0903,0.0423 0.24157,0.0388 0.30586,0.12743 0.0422,0.058 -0.01,0.14079 0.11663,0.13978 0.15642,-0.001 0.19172,-0.21728 0.27593,0.0462 0.0295,0.0923 0.0956,0.1122 0.0347,0.19158 -0.0843,0.11012 0.16938,0.29224 0.22118,0.36143 0.16857,0.22493 0.46295,0.21124 0.72312,0.23487 0.20447,0.0185 0.40558,0.31337 0.49771,0.47483 0.0776,0.13622 0.19185,0.12957 0.27903,0.23587 0.12125,0.14749 0.30854,0.3533 0.37269,0.53469 0.16635,0.46926 -0.85632,0.95402 -0.46362,1.52917 0.14246,0.20971 0.32109,0.29271 0.34619,0.58361 0.0362,0.41968 -0.37511,0.0635 -0.53798,0.16025 -0.35632,0.21124 -1.08031,0.46611 -1.15835,0.93275 -0.0768,0.45839 -0.29916,0.4239 -0.58791,0.69279 -0.16823,0.15642 -0.58253,0.34451 -0.57884,0.62803 0.004,0.34156 -0.0136,0.41927 -0.30332,0.62018 -0.24345,0.16863 -0.42557,0.15508 -0.54327,0.45175 -0.0444,0.11186 0.0373,0.17454 0.10475,0.24392 0.13461,0.13857 -0.003,0.15159 -0.0383,0.28828 -0.0708,0.27097 -0.20306,0.53577 -0.021,0.80311 0.0808,0.11878 0.0972,0.2097 0.14287,0.34216 0.0337,0.0988 -0.0458,0.19568 0.0258,0.27795 0.0739,0.0853 0.14999,0.19937 0.23682,0.27104 0.0834,0.0686 0.28197,0.0415 0.3321,0.14239 0.1485,0.29902 0.002,0.42578 0.40705,0.48577 0.1424,0.0211 0.66038,0.23312 0.28386,0.28218 -0.0873,0.28358 0.11602,0.64581 0.42295,0.64628 0.0927,1.4e-4 0.19474,-0.0478 0.28661,-0.0146 0.13884,0.0502 -0.13039,0.21869 -0.14488,0.25902 -0.1069,0.29815 -0.004,0.66205 -0.25755,0.89457 -0.22681,0.2083 -0.5577,0.34754 -0.82572,0.50335 -0.20822,0.12093 -0.47342,0.35894 -0.59911,0.57006 -0.13233,0.22218 0.0211,0.84343 0.0425,1.10474 0.0101,0.12394 0.48336,0.66937 -0.0685,0.44289 -0.46907,-0.19246 -0.69205,-0.0299 -0.88994,0.35793 -0.12381,0.24191 -0.4488,0.19924 -0.6634,0.37545 -0.18877,0.15495 -0.0899,0.66602 0.006,0.85458 0.17991,0.3525 0.0685,0.40719 -0.3172,0.38605 -0.37257,-0.0205 -0.4698,0.54314 -0.3633,0.81224 0.12582,0.3176 0.46839,0.39417 0.49355,0.77042 0.0226,0.33895 0.35498,0.4755 0.6334,0.60253 0.18118,0.0826 0.35438,0.13562 0.5163,0.25822 0.10542,0.0802 0.19306,0.21701 0.33136,0.23601 0.16065,0.0219 0.34331,-0.0488 0.48389,0.0575 0.23454,0.17742 0.0624,0.25043 0.0977,0.4765"
         i:knockout="Off"
         style="fill:#ffffff;fill-opacity:1;stroke:none;stroke-opacity:1" /><path
         id="path5890"
         d="m 253.92011,511.36202 c -0.0283,0.0621 -0.14763,0.0427 -0.20326,0.0599 -0.15434,0.0476 -0.29365,0.0629 -0.40457,0.19171 -0.0462,0.0536 -0.0597,0.1114 -0.0813,0.17394 -0.0375,0.10803 -0.0917,0.20809 -0.13811,0.30982 -0.0569,0.12468 -0.0106,0.30143 -0.13138,0.39565 -0.0572,0.0448 -0.12032,0.0425 -0.19333,0.0503 -0.1116,0.0119 -0.11864,0.0246 -0.19159,-0.0608 -0.0594,-0.0698 -0.0904,-0.0921 -0.0968,-0.18715 -0.006,-0.0869 -1.3e-4,-0.17656 0,-0.26379 7e-5,-0.0837 0.01,-0.13052 -0.0559,-0.18763 -0.0617,-0.0537 -0.13649,-0.091 -0.20279,-0.14192 -0.0598,-0.046 -0.13857,-0.0974 -0.18366,-0.15797 -0.0524,-0.0705 -0.0694,-0.16749 -0.11019,-0.24331 -0.10025,-0.18615 -0.14568,-0.34506 -0.34075,-0.42505 -0.0843,-0.0346 -0.14226,-0.10139 -0.22219,-0.14266 -0.10904,-0.0562 -0.2101,-0.089 -0.30579,-0.16796 -0.16515,-0.13582 -0.33298,-0.27842 -0.29983,-0.51832 0.17011,-0.0819 0.23346,0.0654 0.36626,0.133 0.12589,0.064 0.24607,0.12992 0.36055,0.20836 0.14468,0.0991 0.2811,0.12375 0.30486,-0.0806 0.009,-0.081 -0.0137,-0.14777 -0.0207,-0.22373 -0.004,-0.038 0.0107,-0.0864 10e-4,-0.12273 -0.01,-0.0356 -0.0419,-0.0546 -0.0574,-0.0846 -0.0254,-0.0492 -0.0521,-0.14407 -0.0456,-0.19842 0.0109,-0.0915 0.11884,-0.0962 0.18393,-0.14703 0.0625,-0.0489 0.0979,-0.1222 0.14622,-0.17756 0.054,-0.0621 0.12945,-0.11448 0.19903,-0.15783 0.0723,-0.0449 0.15495,-0.0505 0.22145,-0.10542 0.0725,-0.0601 0.11998,-0.1065 0.18809,-0.18474 0.0423,-0.0484 0.0995,-0.085 0.14206,-0.13555 0.063,-0.0746 0.0939,-0.16239 0.14253,-0.24272 0.0454,-0.075 0.12428,-0.19615 0.20192,-0.24459 0.13005,-0.0812 0.18722,0.0391 0.24346,0.13259 0.0276,0.0458 0.0657,0.0863 0.0919,0.13026 0.0587,0.0987 0.0689,0.14017 0.18763,0.13836 0.14716,-0.002 0.22084,0.0706 0.24795,0.20286 0.0266,0.12998 0.0208,0.25406 0.0356,0.38605 0.007,0.058 0.0346,0.10576 0.0664,0.1579 0.0484,0.0793 0.0442,0.11743 0.0548,0.20782 0.0129,0.10965 0.0364,0.23681 0.0974,0.32768 0.0403,0.0599 0.10046,0.0682 0.14192,0.12279 0.0385,0.0507 0.0305,0.12992 0.0224,0.19481 -0.21896,-0.007 -0.32217,0.21775 -0.32156,0.40873 7.4e-4,0.22715 0.0923,0.42773 0.0573,0.66595 -0.0358,0.0172 -0.076,0.0335 -0.11823,0.0239"
         i:knockout="Off"
         style="fill:#ffffff;fill-opacity:1;stroke:none;stroke-opacity:1" /><path
         style="fill:#ffffff;fill-opacity:1;stroke:none;stroke-width:0.265024;stroke-opacity:1"
         i:knockout="Off"
         id="path5896"
         d="" /></g><path
       d="m 115.42366,-264.1351 c -5.0323,2.28209 -8.06922,5.8281 -9.94172,10.36889 -0.69048,1.67353 -1.17031,3.54018 -0.66122,5.27807 0.50908,1.73203 2.31135,3.18322 4.06095,2.7502 1.1586,-0.28672 1.99535,-1.26977 2.84382,-2.11239 a 16.372549,16.372549 0 0 1 4.48229,-3.13642 c 2.07144,-0.98305 4.34182,-1.51552 6.37814,-2.5805 2.03047,-1.06498 3.89711,-2.85558 4.16629,-5.13179 0.26331,-2.22943 -1.14691,-4.45301 -3.12471,-5.52384 -1.97783,-1.07084 -5.30147,-1.22883 -8.20384,0.0877 z"
       fill="url(#IconifyId17ecdb2904d178eab10094)"
       id="path6-9-5-68-76"
       style="stroke-width:0.585153" /><path
       d="m 103.5568,-259.2842 c 0.26915,-0.005 0.51492,-0.13463 0.66119,-0.35695 0.78998,-1.15859 2.62734,-4.27159 7.62454,-7.02767 2.91406,-1.60916 5.36,-2.24698 6.23187,-2.42837 2.46934,-0.51495 1.61502,-1.79641 0.0117,-1.57993 -1.81982,0.24577 -9.81886,2.00709 -15.22563,10.08803 -0.37453,0.56761 0.0187,1.32244 0.69631,1.30489 z"
       fill="#ffffff"
       opacity="0.59"
       id="path7-7-9-8-4"
       style="stroke-width:0.585153" /><path
       d="m 141.48632,-237.94372 c -0.75486,0.0936 -1.45117,1.40437 -1.59161,1.63259 -0.73146,1.19369 -2.16506,4.15457 -7.15055,6.93404 -2.32307,1.2932 -4.71632,2.24114 -5.91003,2.56883 -1.94857,0.53833 -1.52726,1.87246 0.0583,1.57988 1.80813,-0.33353 9.71936,-2.45761 14.74583,-10.77848 0.35107,-0.58516 0.85433,-2.05975 -0.15213,-1.93686 z"
       fill="#ffffff"
       opacity="0.59"
       id="path8-6-4-3"
       style="stroke-width:0.585153" /><path
       d="m 123.32321,-229.43561 c -2.65074,-0.0819 -3.16566,-1.31073 -2.62148,-2.29964 0.43302,-0.7841 1.44532,-0.94211 2.34062,-1.01232 4.76898,-0.3745 9.36243,-3.27098 12.90844,-6.3606 -0.62613,3.21249 -1.86664,4.88603 -3.81519,6.44838 -1.90761,1.5214 -4.75143,3.35291 -8.81239,3.22418 z"
       fill="url(#IconifyId17ecdb2904d178eab10095)"
       id="path9-21-3-0"
       style="stroke-width:0.585153" /><path
       d="m 121.05722,-267.84886 c -11.74708,0 -20.59438,8.74804 -20.59438,20.36328 0,11.61529 9.55745,21.07133 21.31045,21.07133 11.753,0 20.59435,-8.74802 20.59435,-20.3633 0,-11.61527 -9.56333,-21.07131 -21.31042,-21.07131"
       opacity="0.6"
       fill="#81d4fa"
       id="path1-7-4-1-3"
       style="stroke-width:0.588464" /><g
       id="g14-0"
       transform="matrix(0.55348459,0,0,0.55348459,28.609763,-299.70098)"><path
         fill="#edb980"
         d="m 106.96982,171.02503 c -6.91127,6.91126 -15.10619,7.00804 -17.969304,4.14675 -2.863093,-2.8631 -2.764508,-11.058 4.146763,-17.96927 l 34.556311,-34.55632 c 6.91127,-6.90945 12.38379,-3.18482 15.24873,-0.32354 2.86127,2.86312 5.48506,7.23479 -1.42801,14.14607 z"
         id="path1-30-4-9"
         style="stroke-width:1.82596" /><path
         d="m 128.19661,128.67005 c 2.8631,2.8631 5.036,5.32632 6.56432,3.80164 0.27755,-0.27755 0.44006,-0.63727 0.54962,-1.03166 a 0.87098357,0.87098357 0 0 1 -0.0749,-0.24836 c -0.23372,-2.09618 -4.40057,-6.6483 -7.44993,-8.62034 l -0.0821,0.0767 -2.69145,2.69145 c 0.79975,0.98421 1.94281,2.0889 3.18447,3.33057 z m -8.29534,8.29349 c 2.86311,2.86312 5.03964,5.32632 6.56799,3.80166 0.27755,-0.27755 0.44005,-0.63908 0.5496,-1.03533 -0.0329,-0.0785 -0.0656,-0.15694 -0.0749,-0.2465 -0.23189,-2.09621 -4.4024,-6.65198 -7.45539,-8.62219 l -2.76999,2.77 c 0.79795,0.98601 1.94101,2.09072 3.18265,3.33236 z m -8.28986,8.29353 c 2.86127,2.86311 5.03782,5.32814 6.56432,3.79983 0.27755,-0.27755 0.44006,-0.63727 0.54962,-1.03168 a 0.93671818,0.93671818 0 0 1 -0.0767,-0.24832 c -0.23373,-2.0962 -4.40422,-6.65015 -7.45541,-8.62037 l -2.76997,2.77 c 0.80159,0.98417 1.94464,2.08888 3.18813,3.33054 z m -8.29352,8.2935 c 2.86129,2.86128 5.03782,5.33 6.56616,3.80167 0.27753,-0.27754 0.44006,-0.63909 0.5496,-1.03351 a 0.93671818,0.93671818 0 0 1 -0.0767,-0.24833 c -0.23189,-2.09618 -4.40239,-6.65197 -7.45356,-8.62219 l -2.76999,2.76999 c 0.79795,0.98602 1.94099,2.09074 3.18448,3.33237 z m -8.293527,8.2917 c 2.861287,2.86312 5.037837,5.32998 6.566167,3.80165 0.27755,-0.27755 0.44006,-0.63908 0.54962,-1.03349 -0.0329,-0.0785 -0.0658,-0.15695 -0.0767,-0.2465 -0.23372,-2.09621 -4.404205,-6.65198 -7.455396,-8.6222 l -1.462595,1.4626 c -0.449191,0.44919 -0.867334,0.90568 -1.261733,1.364 0.797951,0.9714 1.922744,2.05603 3.140644,3.27394 z"
         fill="#e5a157"
         id="path2-30-9-2"
         style="stroke-width:1.82596" /><path
         d="m 129.17714,121.29862 c -0.23006,0.19348 -1.15764,1.03897 -1.39138,1.27089 3.04936,1.97203 7.21621,6.52598 7.44993,8.62036 a 0.81985666,0.81985666 0 0 0 0.0767,0.24833 0.90750279,0.90750279 0 0 0 0.83081,0.56421 l 0.10417,-0.007 a 0.91298068,0.91298068 0 0 0 0.80525,-1.00975 c -0.29952,-2.6511 -4.34951,-7.30364 -7.87544,-9.68837 z m -8.36836,8.24241 -1.322,1.32197 c 3.05117,1.97023 7.2235,6.526 7.45539,8.6222 0.01,0.0894 0.0419,0.16799 0.0749,0.2465 0.13889,0.33415 0.46015,0.56606 0.83082,0.56606 l 0.10417,-0.006 a 0.91298068,0.91298068 0 0 0 0.80526,-1.00795 c -0.29579,-2.6732 -4.40239,-7.37687 -7.94839,-9.74331 z m -8.2917,8.29167 -1.322,1.322 c 3.05119,1.97021 7.22167,6.526 7.45541,8.62037 a 0.81985666,0.81985666 0 0 0 0.0767,0.24833 0.90750279,0.90750279 0 0 0 0.82898,0.56422 l 0.10416,-0.006 a 0.91298068,0.91298068 0 0 0 0.80526,-1.00792 c -0.29764,-2.6714 -4.40423,-7.37324 -7.94842,-9.74151 z m -8.29352,8.2917 -1.32199,1.32198 c 3.05117,1.97023 7.22168,6.52602 7.45357,8.6222 a 0.81985666,0.81985666 0 0 0 0.0767,0.24832 0.90567684,0.90567684 0 0 0 0.83083,0.56424 l 0.10215,-0.007 a 0.91298068,0.91298068 0 0 0 0.80709,-1.00795 c -0.29764,-2.67138 -4.4024,-7.37504 -7.94842,-9.74332 z m -8.29351,8.29533 -1.322002,1.322 c 3.05119,1.97022 7.221672,6.52599 7.455392,8.6222 a 0.80890088,0.80890088 0 0 0 0.0767,0.2465 0.90750279,0.90750279 0 0 0 1.74013,-0.45101 c -0.29945,-2.66957 -4.406032,-7.37324 -7.950228,-9.73969 z"
         fill="#ffd983"
         id="path3-925-2-5"
         style="stroke-width:1.82596" /></g><path
       d="m 120.01711,-266.62785 c 11.61526,0 21.07131,9.45021 21.07131,21.07131 0,11.62112 -8.74802,20.3633 -20.36328,20.3633 -11.61527,0 -21.07717,-9.45021 -21.07717,-21.07133 0,-11.6211 8.74802,-20.36328 20.36914,-20.36328 m -16.1619,4.20138 c -7.595277,8.36182 -11.468967,22.03684 -0.68463,32.82118 11.64453,11.6445 27.21542,6.81116 35.53627,-1.68525 4.49981,-4.59343 10.15238,-21.42241 -1.36339,-32.93234 -11.51579,-11.50994 -28.44424,-3.75667 -33.48825,1.79641 z"
       fill="#616161"
       id="path2-5-4-0-4"
       style="stroke-width:0.585153" /><path
       d="m 122.18802,-268.98601 c 11.61526,0 21.06547,9.45021 21.06547,21.06545 0,11.61526 -9.45021,21.06547 -21.06547,21.06547 -11.61526,0 -21.06547,-9.45021 -21.06547,-21.06547 0,-11.61524 9.45606,-21.06545 21.06547,-21.06545 m 0,-2.31721 c -12.90844,0 -23.3768,10.46838 -23.3768,23.37683 0,12.90844 10.46836,23.3768 23.3768,23.3768 12.90844,0 23.3768,-10.46836 23.3768,-23.3768 0,-12.90845 -10.4625,-23.37683 -23.3768,-23.37683 z"
       fill="#bdbdbd"
       id="path5-8-3-6-0"
       style="stroke-width:0.585153" /><g
       transform="matrix(1.4839726,0,0,1.4839726,-132.47247,-385.54093)"
       id="g6-1-5"
       style="filter:url(#filter2-1)"><!-- Forme principale --><path
         id="path6-1-9"
         style="fill:url(#linearGradient18)"
         d="m 170.61976,83.132659 c -3.87814,0 -7.02172,3.144555 -7.02172,7.022974 0,1.961862 0.85846,4.189907 2.10407,5.92397 l 4.91828,7.053037 4.91983,-7.054289 c 1.48286,-2.120315 2.1022,-3.962088 2.1022,-5.922718 0,-3.878419 -3.14393,-7.022974 -7.02266,-7.022974 z m 3.1e-4,3.466713 a 3.1562531,3.1562531 0 0 1 3.15643,3.156111 3.1562531,3.1562531 0 0 1 -3.15643,3.156424 3.1562531,3.1562531 0 0 1 -3.15611,-3.156424 3.1562531,3.1562531 0 0 1 3.15611,-3.156111 z" /><!-- Cercle intérieur --></g><rect
       style="opacity:0.832029;fill:#5e70a3;fill-opacity:0;stroke-width:4.14743;stroke-miterlimit:3.9"
       id="rect17-4"
       width="70"
       height="70"
       x="76.411858"
       y="-271.37073" /></g></svg>
